<mxfile host="app.diagrams.net" modified="2023-11-15T02:18:48.622Z" agent="Mozilla/5.0 (Windows NT 10.0; Win64; x64) AppleWebKit/537.36 (KHTML, like Gecko) Chrome/119.0.0.0 Safari/537.36" etag="Lj9n6qAahBVbbStXGJBG" version="22.1.1" type="device">
  <diagram id="C5RBs43oDa-KdzZeNtuy" name="Page-1">
    <mxGraphModel dx="1120" dy="446" grid="1" gridSize="10" guides="1" tooltips="1" connect="1" arrows="1" fold="1" page="1" pageScale="1" pageWidth="827" pageHeight="1169" math="0" shadow="0">
      <root>
        <mxCell id="WIyWlLk6GJQsqaUBKTNV-0" />
        <mxCell id="WIyWlLk6GJQsqaUBKTNV-1" parent="WIyWlLk6GJQsqaUBKTNV-0" />
        <mxCell id="g7ahB9nPK3oas-ERIyQk-27" style="edgeStyle=orthogonalEdgeStyle;rounded=0;orthogonalLoop=1;jettySize=auto;html=1;exitX=0.5;exitY=1;exitDx=0;exitDy=0;entryX=0.5;entryY=0;entryDx=0;entryDy=0;" edge="1" parent="WIyWlLk6GJQsqaUBKTNV-1" source="g7ahB9nPK3oas-ERIyQk-0" target="g7ahB9nPK3oas-ERIyQk-1">
          <mxGeometry relative="1" as="geometry" />
        </mxCell>
        <mxCell id="g7ahB9nPK3oas-ERIyQk-0" value="&lt;font style=&quot;font-size: 18px;&quot;&gt;START&lt;/font&gt;" style="ellipse;whiteSpace=wrap;html=1;" vertex="1" parent="WIyWlLk6GJQsqaUBKTNV-1">
          <mxGeometry x="338" y="200" width="210" height="80" as="geometry" />
        </mxCell>
        <mxCell id="g7ahB9nPK3oas-ERIyQk-7" style="edgeStyle=orthogonalEdgeStyle;rounded=0;orthogonalLoop=1;jettySize=auto;html=1;exitX=0.5;exitY=1;exitDx=0;exitDy=0;" edge="1" parent="WIyWlLk6GJQsqaUBKTNV-1" source="g7ahB9nPK3oas-ERIyQk-1" target="g7ahB9nPK3oas-ERIyQk-2">
          <mxGeometry relative="1" as="geometry" />
        </mxCell>
        <mxCell id="g7ahB9nPK3oas-ERIyQk-1" value="INPUT&lt;br&gt;(NIM GANJIL/GENAP)" style="rounded=0;whiteSpace=wrap;html=1;" vertex="1" parent="WIyWlLk6GJQsqaUBKTNV-1">
          <mxGeometry x="360.5" y="370" width="165" height="70" as="geometry" />
        </mxCell>
        <mxCell id="g7ahB9nPK3oas-ERIyQk-8" style="edgeStyle=orthogonalEdgeStyle;rounded=0;orthogonalLoop=1;jettySize=auto;html=1;exitX=0;exitY=0.5;exitDx=0;exitDy=0;" edge="1" parent="WIyWlLk6GJQsqaUBKTNV-1" source="g7ahB9nPK3oas-ERIyQk-2" target="g7ahB9nPK3oas-ERIyQk-3">
          <mxGeometry relative="1" as="geometry" />
        </mxCell>
        <mxCell id="g7ahB9nPK3oas-ERIyQk-9" style="edgeStyle=orthogonalEdgeStyle;rounded=0;orthogonalLoop=1;jettySize=auto;html=1;exitX=1;exitY=0.5;exitDx=0;exitDy=0;" edge="1" parent="WIyWlLk6GJQsqaUBKTNV-1" source="g7ahB9nPK3oas-ERIyQk-2" target="g7ahB9nPK3oas-ERIyQk-4">
          <mxGeometry relative="1" as="geometry" />
        </mxCell>
        <mxCell id="g7ahB9nPK3oas-ERIyQk-2" value="check apakah nim &lt;br&gt;Ganjil/genap&lt;br&gt;" style="rhombus;whiteSpace=wrap;html=1;" vertex="1" parent="WIyWlLk6GJQsqaUBKTNV-1">
          <mxGeometry x="353" y="518" width="180" height="100" as="geometry" />
        </mxCell>
        <mxCell id="g7ahB9nPK3oas-ERIyQk-3" value="jika nim ganjil mentransfer uang&amp;nbsp;&lt;br&gt;melaluai moblie banking" style="shape=parallelogram;perimeter=parallelogramPerimeter;whiteSpace=wrap;html=1;fixedSize=1;" vertex="1" parent="WIyWlLk6GJQsqaUBKTNV-1">
          <mxGeometry x="165" y="665" width="215" height="75" as="geometry" />
        </mxCell>
        <mxCell id="g7ahB9nPK3oas-ERIyQk-4" value="jika nim genap membayar barang&lt;br&gt;ditoko online mbile banking" style="shape=parallelogram;perimeter=parallelogramPerimeter;whiteSpace=wrap;html=1;fixedSize=1;" vertex="1" parent="WIyWlLk6GJQsqaUBKTNV-1">
          <mxGeometry x="520" y="665" width="230" height="75" as="geometry" />
        </mxCell>
        <mxCell id="g7ahB9nPK3oas-ERIyQk-5" value="output membeli&lt;br&gt;suatu barang" style="shape=cube;whiteSpace=wrap;html=1;boundedLbl=1;backgroundOutline=1;darkOpacity=0.05;darkOpacity2=0.1;" vertex="1" parent="WIyWlLk6GJQsqaUBKTNV-1">
          <mxGeometry x="383" y="850" width="150" height="100" as="geometry" />
        </mxCell>
        <mxCell id="g7ahB9nPK3oas-ERIyQk-6" value="END" style="ellipse;shape=cloud;whiteSpace=wrap;html=1;" vertex="1" parent="WIyWlLk6GJQsqaUBKTNV-1">
          <mxGeometry x="400" y="1060" width="140" height="90" as="geometry" />
        </mxCell>
        <mxCell id="g7ahB9nPK3oas-ERIyQk-10" value="&lt;b&gt;&lt;font style=&quot;font-size: 14px;&quot;&gt;True&lt;/font&gt;&lt;/b&gt;" style="text;html=1;align=center;verticalAlign=middle;resizable=0;points=[];autosize=1;strokeColor=none;fillColor=none;" vertex="1" parent="WIyWlLk6GJQsqaUBKTNV-1">
          <mxGeometry x="255" y="518" width="50" height="30" as="geometry" />
        </mxCell>
        <mxCell id="g7ahB9nPK3oas-ERIyQk-11" value="&lt;b&gt;&lt;font style=&quot;font-size: 14px;&quot;&gt;false&lt;/font&gt;&lt;/b&gt;" style="text;html=1;align=center;verticalAlign=middle;resizable=0;points=[];autosize=1;strokeColor=none;fillColor=none;" vertex="1" parent="WIyWlLk6GJQsqaUBKTNV-1">
          <mxGeometry x="580" y="518" width="60" height="30" as="geometry" />
        </mxCell>
        <mxCell id="g7ahB9nPK3oas-ERIyQk-26" style="edgeStyle=orthogonalEdgeStyle;rounded=0;orthogonalLoop=1;jettySize=auto;html=1;exitX=0;exitY=0;exitDx=85;exitDy=100;exitPerimeter=0;entryX=0.479;entryY=0.222;entryDx=0;entryDy=0;entryPerimeter=0;" edge="1" parent="WIyWlLk6GJQsqaUBKTNV-1" source="g7ahB9nPK3oas-ERIyQk-5" target="g7ahB9nPK3oas-ERIyQk-6">
          <mxGeometry relative="1" as="geometry" />
        </mxCell>
        <mxCell id="g7ahB9nPK3oas-ERIyQk-28" style="edgeStyle=orthogonalEdgeStyle;rounded=0;orthogonalLoop=1;jettySize=auto;html=1;exitX=0.5;exitY=1;exitDx=0;exitDy=0;entryX=0;entryY=0;entryDx=0;entryDy=40;entryPerimeter=0;" edge="1" parent="WIyWlLk6GJQsqaUBKTNV-1" source="g7ahB9nPK3oas-ERIyQk-3" target="g7ahB9nPK3oas-ERIyQk-5">
          <mxGeometry relative="1" as="geometry" />
        </mxCell>
        <mxCell id="g7ahB9nPK3oas-ERIyQk-29" style="edgeStyle=orthogonalEdgeStyle;rounded=0;orthogonalLoop=1;jettySize=auto;html=1;exitX=0.5;exitY=1;exitDx=0;exitDy=0;entryX=0;entryY=0;entryDx=150;entryDy=60;entryPerimeter=0;" edge="1" parent="WIyWlLk6GJQsqaUBKTNV-1" source="g7ahB9nPK3oas-ERIyQk-4" target="g7ahB9nPK3oas-ERIyQk-5">
          <mxGeometry relative="1" as="geometry" />
        </mxCell>
      </root>
    </mxGraphModel>
  </diagram>
</mxfile>
